<?xml version="1.0" encoding="UTF-8"?><svg id="Layer_1" xmlns="http://www.w3.org/2000/svg" xmlns:xlink="http://www.w3.org/1999/xlink" viewBox="0 0 15 15"><defs><style>.cls-1{fill:url(#linear-gradient);}.cls-2{fill:#fff;}</style><linearGradient id="linear-gradient" x1="-135.74" y1="18.56" x2="-120.74" y2="18.56" gradientTransform="translate(135.74 26.06) scale(1 -1)" gradientUnits="userSpaceOnUse"><stop offset="0" stop-color="#ef4045"/><stop offset=".24" stop-color="#dc3b72"/><stop offset=".48" stop-color="#de3d96"/><stop offset=".71" stop-color="#9269ad"/><stop offset=".97" stop-color="#738cc7"/></linearGradient></defs><path class="cls-1" d="m7.5,0C3.38,0,0,3.38,0,7.5s3.38,7.5,7.5,7.5,7.5-3.38,7.5-7.5S11.62,0,7.5,0Z"/><path class="cls-2" d="m6.47,12.34v-1.85c0-.1.07-.17.17-.17s.17.07.17.17v1.85h.67v-2.19c0-.1.07-.17.17-.17s.17.07.17.17v2.19h.67v-1.85c0-.1.07-.17.17-.17s.17.07.17.17v1.85h.61c.07-.1.07-.2.07-.37v-1.31c0-.74-.64-1.75-1.45-1.75h-.84c-.77,0-1.45,1.04-1.45,1.75v1.31c0,.13.03.27.07.37h.64,0Zm6.43-4.91h0s-.44-.13-.81-.13h-.03c-.37,0-.98.1-.98.1,0,0-.01-.01-.03-.03-.03-.03,0-.03.03-.03s.67-.1,1.04-.1.81.13.84.13.03.03.03.07c-.07-.03-.07,0-.1,0h.01Zm-.1.26h0s-.47-.13-.87-.13c-.3,0-1.01.07-1.04.07s-.03,0-.03-.03,0-.03.03-.03.74-.07,1.04-.07c.44,0,.87.13.87.13.03,0,.03.03.03.07,0-.03,0,0-.03,0h0Zm-10.76-.28s-.03,0-.03-.03,0-.03.03-.07c.27-.07.81-.17,1.11-.17.27,0,1.18.07,1.21.07s.03.03.03.03c0,.03-.03.03-.03.03,0,0-.91-.07-1.18-.07-.37.07-.87.13-1.14.2h0Zm.13.51s-.03,0-.03-.03v-.07s.47-.27.98-.34c.44-.07,1.35.03,1.41.03.03,0,.03.03.03.03,0,.03-.03.03-.03.03h0s-.94-.1-1.38-.03c-.5.1-.98.37-.98.37h0Z"/><path class="cls-2" d="m4.19,6.46c0-1.48,1.55-2.86,3.46-2.86s3.46,1.35,3.46,2.86-1.11,2.52-3.46,2.52-3.46-1.04-3.46-2.52Z"/><path class="cls-2" d="m9.03,4.04s.57-.77,1.61-.77c.4.4.13,1.61,0,1.95,0,0-1.61-1.18-1.61-1.18Zm-2.76,0s-.57-.77-1.61-.77c-.4.4-.13,1.61,0,1.95,0,0,1.61-1.18,1.61-1.18Zm-.1,6.59h-.94c-.4,0-.77-.17-.94-.5-.2-.37-.37-.77-.87-1.11-.1-.07-.03-.13.13-.13.17.03.47.07.71.37.24.3.5.67.94.67s.91,0,1.18-.3l-.2,1.01h-.01Z"/></svg>