<?xml version="1.0" encoding="UTF-8"?><svg id="Layer_1" xmlns="http://www.w3.org/2000/svg" xmlns:xlink="http://www.w3.org/1999/xlink" viewBox="0 0 15 15"><defs><style>.cls-1{fill:url(#linear-gradient);}.cls-2{fill:#fff;}</style><linearGradient id="linear-gradient" x1="0" y1="18.56" x2="15" y2="18.56" gradientTransform="translate(0 26.06) scale(1 -1)" gradientUnits="userSpaceOnUse"><stop offset="0" stop-color="#ef4045"/><stop offset=".24" stop-color="#dc3b72"/><stop offset=".48" stop-color="#de3d96"/><stop offset=".71" stop-color="#9269ad"/><stop offset=".97" stop-color="#738cc7"/></linearGradient></defs><path class="cls-1" d="m7.5,0C3.36,0,0,3.36,0,7.5s3.36,7.5,7.5,7.5,7.5-3.36,7.5-7.5S11.64,0,7.5,0Z"/><path class="cls-2" d="m10.12,6.75h3v.75h-3v-.75Zm-1.19.08l-.02-.08h-3.29v1.12h2.22c-.18,1.06-1.1,1.88-2.22,1.88-1.24,0-2.25-1.01-2.25-2.25s1.01-2.25,2.25-2.25c.56,0,1.08.21,1.47.55l.81-.79c-.6-.55-1.4-.88-2.28-.88-1.86,0-3.38,1.51-3.38,3.37s1.51,3.38,3.38,3.38,3.38-1.51,3.38-3.38c0-.23-.02-.46-.07-.67Z"/></svg>