<?xml version="1.0" encoding="UTF-8"?><svg width="50%" id="linkedin-icon"  xmlns="http://www.w3.org/2000/svg" xmlns:xlink="http://www.w3.org/1999/xlink" viewBox="0 0 15 15"><defs><style>.cls-1{fill:url(#linear-gradient);}.cls-2{fill:#fff;}</style><linearGradient id="linear-gradient" x1="0" y1="18.56" x2="15" y2="18.56" gradientTransform="translate(0 26.06) scale(1 -1)" gradientUnits="userSpaceOnUse"><stop offset="0" stop-color="#ef4045"/><stop offset=".24" stop-color="#dc3b72"/><stop offset=".48" stop-color="#de3d96"/><stop offset=".71" stop-color="#9269ad"/><stop offset=".97" stop-color="#738cc7"/></linearGradient></defs><path class="cls-1" d="m7.5,0C3.38,0,0,3.38,0,7.5s3.38,7.5,7.5,7.5,7.5-3.38,7.5-7.5S11.62,0,7.5,0Z"/><rect class="cls-2" x="4.03" y="4.91" width="1.5" height="5.63"/><path class="cls-2" d="m11.91,6.97c0-1.12-.94-2.06-2.06-2.06-.71,0-1.31.34-1.69.86v-.86h-1.5v5.63h1.5v-3c0-.64.49-1.12,1.12-1.12s1.12.49,1.12,1.12v3h1.5v-3.56h.01Z"/></svg>