<?xml version="1.0" encoding="UTF-8"?><svg id="Layer_1" xmlns="http://www.w3.org/2000/svg" xmlns:xlink="http://www.w3.org/1999/xlink" viewBox="0 0 15 15"><defs><style>.cls-1{fill:url(#linear-gradient);}.cls-2{fill:#fff;}</style><linearGradient id="linear-gradient" x1="0" y1="18.56" x2="15" y2="18.56" gradientTransform="translate(0 26.06) scale(1 -1)" gradientUnits="userSpaceOnUse"><stop offset="0" stop-color="#ef4045"/><stop offset=".24" stop-color="#dc3b72"/><stop offset=".48" stop-color="#de3d96"/><stop offset=".71" stop-color="#9269ad"/><stop offset="1" stop-color="#738cc7"/></linearGradient></defs><path class="cls-1" d="m7.5,0C3.38,0,0,3.38,0,7.5s3.38,7.5,7.5,7.5,7.5-3.38,7.5-7.5S11.62,0,7.5,0Z"/><path class="cls-2" d="m12,4.91c-.34.15-.75.3-1.12.34.38-.23.97-.71,1.12-1.12-.38.23-1.01.45-1.42.52-.34-.38-.83-.52-1.35-.52-1.01,0-1.73.86-1.73,1.88v.75c-1.5,0-2.96-1.12-3.86-2.25-.15.26-.26.6-.26.94,0,.67.64,1.39,1.12,1.69-.3,0-.86-.23-1.12-.38v.04c0,.9.64,1.5,1.46,1.65-.15.04-.34.19-1.05.19.23.71,1.43,1.12,2.21,1.12-.64.49-1.76.75-2.62.75h-.38c.82.53,1.95.75,3,.75,3.41,0,5.25-2.59,5.25-5.02v-.41c.38-.26.49-.52.75-.9"/></svg>